<svg xmlns="http://www.w3.org/2000/svg" viewBox="0 0 344 126" role="img" aria-label="Repevo">
  <path fill="#FFFFFF" d="M23.78 96L10.72 96L10.72 26.88L39.90 26.88Q40.91 26.88 42.62 26.95Q44.32 27.02 45.66 27.26Q51.86 28.22 55.82 31.34Q59.78 34.46 61.65 39.19Q63.52 43.92 63.52 49.73Q63.52 58.42 59.20 64.58Q54.88 70.75 45.66 72.19L39.90 72.58L23.78 72.58L23.78 96M64.48 96L49.70 96L36.06 67.87L49.50 65.28L64.48 96M23.78 39.07L23.78 60.38L39.33 60.38Q40.34 60.38 41.54 60.29Q42.74 60.19 43.74 59.90Q46.38 59.18 47.82 57.48Q49.26 55.78 49.82 53.69Q50.37 51.60 50.37 49.73Q50.37 47.86 49.82 45.77Q49.26 43.68 47.82 41.98Q46.38 40.27 43.74 39.55Q42.74 39.26 41.54 39.17Q40.34 39.07 39.33 39.07 M97.64 97.44Q89.67 97.44 83.60 94.01Q77.52 90.58 74.09 84.55Q70.66 78.53 70.66 70.75Q70.66 62.26 74.02 55.97Q77.38 49.68 83.28 46.20Q89.19 42.72 96.87 42.72Q105.03 42.72 110.74 46.56Q116.45 50.40 119.19 57.36Q121.92 64.32 121.11 73.73L108.20 73.73L108.20 68.93Q108.20 61.01 105.68 57.53Q103.16 54.05 97.44 54.05Q90.77 54.05 87.63 58.10Q84.48 62.16 84.48 70.08Q84.48 77.33 87.63 81.29Q90.77 85.25 96.87 85.25Q100.71 85.25 103.44 83.57Q106.18 81.89 107.62 78.72L120.68 82.46Q117.75 89.57 111.44 93.50Q105.12 97.44 97.64 97.44M114.82 73.73L80.45 73.73L80.45 64.03L114.82 64.03 M155.85 97.44Q148.12 97.44 142.94 93.84Q137.75 90.24 135.14 84.05Q132.52 77.86 132.52 70.08Q132.52 62.30 135.11 56.11Q137.70 49.92 142.74 46.32Q147.78 42.72 155.18 42.72Q162.62 42.72 168.14 46.27Q173.66 49.82 176.70 55.99Q179.75 62.16 179.75 70.08Q179.75 77.86 176.75 84.05Q173.75 90.24 168.38 93.84Q163 97.44 155.85 97.44M143.46 119.04L130.31 119.04L130.31 44.16L141.83 44.16L141.83 79.68L143.46 79.68L143.46 119.04M153.74 85.82Q157.96 85.82 160.65 83.71Q163.34 81.60 164.63 78.02Q165.93 74.45 165.93 70.08Q165.93 65.76 164.58 62.18Q163.24 58.61 160.43 56.47Q157.62 54.34 153.26 54.34Q149.18 54.34 146.66 56.30Q144.14 58.27 142.98 61.82Q141.83 65.38 141.83 70.08Q141.83 74.78 142.98 78.34Q144.14 81.89 146.75 83.86Q149.37 85.82 153.74 85.82"/>
  <path fill="#FFFFFF" d="M211.17 97.44Q203.73 97.44 198.31 94.10Q192.88 90.77 189.91 84.65Q186.93 78.53 186.93 70.18Q186.93 61.68 189.88 55.51Q192.84 49.34 198.24 46.03Q203.64 42.72 211.08 42.72Q218.61 42.72 223.96 46.15Q229.32 49.58 232.12 56.06Q234.93 62.54 234.79 71.66L229.03 71.66L229.03 69.74Q228.79 59.09 224.23 53.52Q219.67 47.95 211.17 47.95Q202.39 47.95 197.61 53.74Q192.84 59.52 192.84 70.08Q192.84 80.54 197.61 86.30Q202.39 92.06 211.08 92.06Q217.08 92.06 221.56 89.26Q226.05 86.45 228.69 81.22L233.68 83.42Q230.56 90.14 224.66 93.79Q218.76 97.44 211.17 97.44M231.67 71.66L190.72 71.66L190.72 66.67L231.67 66.67 M263.77 96L257.91 96L239.10 44.16L244.81 44.16L260.84 88.46L276.82 44.16L282.58 44.16 M310.99 97.44Q303.26 97.44 297.88 93.94Q292.51 90.43 289.68 84.24Q286.84 78.05 286.84 69.98Q286.84 61.87 289.72 55.70Q292.60 49.54 298 46.13Q303.40 42.72 310.99 42.72Q318.72 42.72 324.12 46.20Q329.52 49.68 332.32 55.82Q335.13 61.97 335.13 69.98Q335.13 78.19 332.30 84.36Q329.47 90.53 324.04 93.98Q318.62 97.44 310.99 97.44M310.99 92.06Q320.16 92.06 324.69 85.92Q329.23 79.78 329.23 69.98Q329.23 60 324.67 54.05Q320.11 48.10 310.99 48.10Q304.80 48.10 300.76 50.90Q296.73 53.71 294.74 58.63Q292.75 63.55 292.75 69.98Q292.75 79.97 297.38 86.02Q302.01 92.06 310.99 92.06"/>
</svg>