<svg xmlns="http://www.w3.org/2000/svg" viewBox="0 0 96 96" role="img" aria-label="Repevo">
  <rect width="96" height="96" rx="22" fill="#5A3DE6"/>
  <path fill="#FFFFFF" d="M41.74 65.04L33.04 65.04L33.04 18.96L52.50 18.96Q53.17 18.96 54.30 19.01Q55.44 19.06 56.34 19.22Q60.46 19.86 63.10 21.94Q65.74 24.02 66.99 27.17Q68.24 30.32 68.24 34.19Q68.24 39.98 65.36 44.10Q62.48 48.21 56.34 49.17L52.50 49.42L41.74 49.42L41.74 65.04M68.88 65.04L59.02 65.04L49.94 46.29L58.90 44.56L68.88 65.04M41.74 27.09L41.74 41.30L52.11 41.30Q52.78 41.30 53.58 41.23Q54.38 41.17 55.06 40.98Q56.82 40.50 57.78 39.36Q58.74 38.22 59.10 36.83Q59.47 35.44 59.47 34.19Q59.47 32.94 59.10 31.55Q58.74 30.16 57.78 29.02Q56.82 27.89 55.06 27.41Q54.38 27.22 53.58 27.15Q52.78 27.09 52.11 27.09"/>
</svg>